<?xml version="1.0" encoding="utf-8"?>
<svg viewBox="0 0 256 256" width="256px" height="256px" xmlns="http://www.w3.org/2000/svg">
  <rect width="256" height="256" rx="60" style="fill: rgb(73, 69, 255);" transform="matrix(0.9999999999999999, 0, 0, 0.9999999999999999, 0, -7.105427357601002e-15)"/>
  <path fill-rule="evenodd" clip-rule="evenodd" d="M 176.531 77.733 L 90.207 77.733 L 90.207 121.767 L 134.241 121.767 L 134.241 165.766 L 178.273 165.766 L 178.273 79.44 C 178.273 78.517 177.492 77.733 176.531 77.733 Z" fill="#fff" style="" transform="matrix(0.9999999999999999, 0, 0, 0.9999999999999999, 0, -7.105427357601002e-15)"/>
  <path fill="#fff" d="M 132.533 121.767 L 134.241 121.767 L 134.241 123.475 L 132.533 123.475 L 132.533 121.767 Z" style="" transform="matrix(0.9999999999999999, 0, 0, 0.9999999999999999, 0, -7.105427357601002e-15)"/>
  <path d="M 90.243 121.767 L 132.57 121.767 C 133.494 121.767 134.276 122.514 134.276 123.475 L 134.276 165.802 L 91.949 165.802 C 90.992 165.802 90.222 165.015 90.243 164.058 L 90.243 121.731 L 90.243 121.767 Z" fill="#9593FF" style="" transform="matrix(0.9999999999999999, 0, 0, 0.9999999999999999, 0, -7.105427357601002e-15)"/>
  <path d="M 134.241 165.766 L 178.273 165.766 L 135.699 208.376 C 135.21 208.815 134.429 208.56 134.294 207.917 C 134.284 207.868 134.278 207.821 134.276 207.772 L 134.276 165.802 L 134.241 165.766 Z M 90.243 121.767 L 48.271 121.767 C 47.615 121.768 47.202 121.059 47.529 120.488 C 47.568 120.423 47.614 120.363 47.667 120.309 L 90.243 77.733 L 90.243 121.767 Z" fill="#9593FF" style="" transform="matrix(0.9999999999999999, 0, 0, 0.9999999999999999, 0, -7.105427357601002e-15)"/>
</svg>